<?xml version="1.0" encoding="UTF-8"?><svg id="Layer_1" xmlns="http://www.w3.org/2000/svg" viewBox="0 0 379.36715 89.74484"><defs><style>.c{fill:#000;}@media (prefers-color-scheme:dark){.c{fill:#fff;}}</style></defs><path class="c" d="M52.74609,79.25783l57.73688-23.326c-2.7285.643-5.28253,1.59432-7.91762,2.58759l-16.92707,6.38051-35.92544,14.05939-18.39608,7.19829c-1.79665.70302-3.56516,1.09584-5.44904,1.07293-.42318-.00515-.88592-.0555-1.10835-.45603l9.18086-4.33515c15.24626-7.41473,30.36805-14.92008,45.45077-22.6711l13.59972-7.2147,5.07248.44452c2.78459.24402,5.44766.72444,8.35241.83808-1.00577-.56413-2.05263-.76586-3.13059-1.0056l-6.48625-1.44256c3.87623.28201,7.57431.8078,11.40757,1.30077l15.90857,2.04587,16.17632,1.70345c4.44564.46815,8.78582.63284,13.25034.69909,4.9194.073,10.63613-.09793,15.30252-1.37007,1.43862-.39219,2.74984-.96415,3.9788-1.78171l.09133-.19348c-2.08068.48163-3.92912.79193-5.9885.94945-7.51714.57499-16.43246.01912-24.04274-.65736-7.84681-.6975-15.65188-1.63596-23.47224-2.71751l-39.76374-6.47917c.35954,2.22847.04737,4.1816-1.93097,5.23812-1.09517.58486-2.25473.71008-3.57047.83568,1.87049,1.27099,4.02148,1.72352,5.77484,3.17401.45507.37646.80958,1.0405.44657,1.56638-.2785.40345-.68679.82285-1.10465,1.09871l-4.40776,2.90996c-4.62446,2.75366-9.27227,5.31727-14.12033,7.65997l-3.42238,1.46744-9.44495-1.35003-2.76046-.4401-19.57941-3.24491-8.81703-1.39061c-.05779-.07322-.06639.14459-.0263.18159l5.31907,1.41576,12.57164,2.39882,14.55337,2.61136,4.67504,1.08795.18184.19775c.04984.0542-.10044.1484-.22587.21269l-21.53151,11.03629-10.81908,5.39637c-1.30665.65173-2.63055.76066-4.0062.22012-.99325-.39028-1.84795-1.00894-2.78954-1.56906l-1.29533-.77055c-.03705-.02204-.24373.01287-.26706.04958-.03485.05483-.0982.25159-.07843.31531l.18316.59017c.99256,1.68318,2.5221,2.83972,4.42288,3.33813,2.19687.63962,4.43074.71468,6.73397.53797,3.37476-.25892,6.41352-1.30316,9.53808-2.59453l18.89633-7.80984Z"/><path class="c" d="M45.64093,33.11018l13.74375-.55534,6.78892.11211,24.26553.58743,29.23483.74117,8.99319.43587c4.9901.24185,9.8933.52256,14.8566.50991-1.40315-.36666-2.65432-.54157-4.03363-.65892l-8.89944-.75716,9.92539-13.79626,6.66358-9.45072c.45022-.63854.66142-1.42597.78441-2.17524.3221-1.96229-.0833-3.93815-1.11845-5.61662-.16834-.27295-.48655-.50284-.71106-.55193-.31396-.06865-.77424.10673-1.04798.31713l-26.98109-2.2516,26.37617,3.25986c-.47561.996-1.00029,1.96978-1.75897,2.81017-.4555.50456-.9072.9463-1.30265,1.55608,1.68083-.86087,2.76098-2.29426,3.67887-3.83725.12-.20173.4098-.61666.61689-.642.37245-.04211.6721.4416.76287.76964.51985,1.87886.27267,3.83206-.59215,5.56596l-3.78239,5.13184-14.49944,18.73189-23.92191-1.12572-25.3281-.82579c-11.44842-.25173-22.82528.32536-34.15813,1.69612l-.30709.07244c-.03827.00903-.03423.07059.00635.06607l.29343-.03268,1.45171-.08647Z"/><path class="c" d="M4.02193,19.7029l11.87146.43032,12.93482.41863,3.06701.30936,3.09841,4.98008-12.78732,6.71302,19.99032-7.49276-4.3921.00749c-.28502.00049-.61922-.23367-.79998-.44498l-1.95355-3.64686-5.94539-12.63072-16.96358,2.41528-2.75751.47154,1.87688-.08813,16.82131-.87525,2.86901,7.39408-2.40218.22503-12.60556.28082-11.45253.39914c-1.53183.05339-2.96061.14927-4.49146.63862,1.38662.38544,2.61706.44435,4.02193.49528Z"/><path class="c" d="M70.48931,29.89326c-2.29938-.29182-7.81597-.84492-8.96702-2.02597l-4.38471-4.49901,8.57122-10.19456c.12622-.15012.25465-.45485.24314-.60299-.01315-.1693-.20058-.43596-.33918-.62728-1.02424-.72662-2.16358-1.20137-3.41332-1.17206l-10.53683,6.7896-7.31835-7.46384-3.87507-3.52914c-.67331-.44661-1.29611-1.04827-2.07498-1.29768-2.31722-.742-6.80731.49162-9.29473,1.40427l5.17788-.42283c1.06252-.08677,2.09001.01382,3.13465.16339.6548.09376,1.2355.41595,1.6823.89132l4.13725,4.40183,14.59647,16.28738c2.33611,2.60674,9.20973,2.41686,12.66127,1.89756ZM54.52634,17.19624c.70943-1.0029,1.60707-1.80823,2.59075-2.47561l5.06896-3.43905c1.06562.02888,1.69523.78367,2.19274,1.68246l-8.50309,9.05637-2.57422-2.73912,1.22486-2.08505Z"/><path class="c" d="M98.29397,18.36476l18.56389,2.63609c1.72623.24513,3.30472.52141,5.03325,1.0462-1.09581.24943-2.11643.28189-3.21198.2118l-6.71482-.42964-4.95701-.26269c.69345.29745,1.25731.45404,1.94484.61816,4.28386,1.02257,8.57691,1.804,13.04066,2.42284l15.45342-13.31181c1.06191-.91474,1.99456-1.79799,2.89791-2.85565l-30.22394-3.43822-.06087.11242,28.78045,3.97662c-3.94214,2.97907-7.64885,5.829-11.26372,8.89026-.97785.55592-1.94758.79906-3.03638,1.01126-1.62318.18579-3.18373.29901-4.83206.2762-3.09509-.04283-6.07551-.2209-9.15875-.57167l-11.65171-1.32556-8.18058-.79914c-1.53812-.15026-2.99741-.1992-4.55658.06757l12.13397,1.72495Z"/><path class="c" d="M139.76335,42.52245c-1.62713.67218-1.54038,2.60103-1.21595,4.38379,1.77515.4148,3.47583.69209,5.30836.79166,5.37662.26711,9.96974-1.48975,14.21088-4.72661-2.12688-2.18572-4.60296-3.70038-7.38499-4.72974-1.43761,1.83852-4.44532,2.38411-6.7765,3.03034-1.43059.35649-2.80354.69772-4.14179,1.25056Z"/><path class="c" d="M11.63197,39.96576c.98013.40958,2.03972.65169,3.12108.81258,1.52771.2664,2.8843.02268,4.35134-.50734l25.65685-9.26939,8.10556-2.62168-2.03006-1.73046-3.34765,1.13069-23.6564,9.01785-5.85336,2.43988c-.69086.28797-1.28687.59056-2.05854.71543l-4.28883.01243Z"/><path class="c" d="M69.51864,47.70349l-6.6558-.43037c-.84367-.05455-1.64754-.09226-2.50482.21226l4.33296.87172c1.04787.21081,2.0325.33235,3.05187.7375-.61126.31067-1.16953.42688-1.76914.38594l-4.6588-.31806-8.98269-1.40461c.56217.34008,1.13438.51136,1.79575.68124,4.48348,1.15165,9.00959,1.86549,13.64151,2.17731l4.97431-.02607c1.0121-.15622,1.92321-.30704,2.93737-.67261-1.21273-.32446-1.95823-1.10712-2.10449-2.28225l-4.05803.06801Z"/><path class="c" d="M54.69043,41.37925c1.4924.50696,11.21049-.72556,14.08971-1.11539l-9.24186-.33358-3.70306-.65899-13.86163-3.21186c.35861.70544,1.04712,1.12782,1.7593,1.40652l3.7014,1.44845,7.25614,2.46486Z"/><path class="c" d="M73.99186,43.12925c-.92124,2.96964.73819,6.59698,2.85,6.36986,2.34565-.25226,2.726-4.9866,1.16924-6.99629-.61638-.79571-1.66677-1.36577-2.68111-1.03141-.70026.23083-1.12288.964-1.33813,1.65784Z"/><path class="c" d="M95.40674,28.17172l-1.32003,2.38601c-.13381.24187-.09009.71427-.00408.97051l5.46902.18124c.42823-1.01913.15807-2.12732-.5295-3.06659-.518-.70762-1.46708-1.3145-2.55295-1.35701-3.59513-.14074-7.13053-.07546-10.7362.26841-2.1886.20872-5.59435.67559-7.06797,2.12135,5.27445-1.60983,11.16023-1.7493,16.74171-1.50393Z"/><path class="c" d="M113.15677,47.03657c.77367.17579,1.54272.26256,2.18138.1081l-.46653-3.76347c-.71535-.15476-1.4601-.22131-2.30229-.05931l.32329,3.03344.26415.68123Z"/><path class="c" d="M104.5005,46.43273l1.67471.00998-.45819-3.78357c-.71347-.16306-1.49131-.2363-2.31063-.06447l.36764,3.21553c.03601.31497.39702.62058.72647.62254Z"/><path class="c" d="M117.85092,47.41295c.80002.2242,1.58397.30104,2.24009.15544l-.46178-3.78221c-.70906-.13188-1.40563-.18846-2.25663-.08314-.00567,1.26666.13579,2.39964.47832,3.70991Z"/><path class="c" d="M108.44991,46.62801c.77263.19029,1.48956.2544,2.21825.16426l-.46226-3.8033c-.73199-.14798-1.48182-.21621-2.31379-.04977l.22295,2.34401.33484,1.34479Z"/><path class="c" d="M99.88561,45.95732c.59017.17613,1.35147.21569,2.00229.17309l-.42558-3.69444c-.73485-.14659-1.45332-.2314-2.22309-.03086l.29125,2.80218c.01743.16769.22618.60874.35514.75004Z"/><path class="c" d="M273.86227,4.30235l-9.26172,53.35596c-1.40918,7.85254-3.28906,13.42383-5.6377,16.71094-2.35059,3.29004-5.67188,5.6377-9.9668,7.04785-1.54492.46973-3.47266.92285-5.78809,1.3584-2.31543.4375-4.31348.75488-5.99023.95703l-11.67773.40234c-4.83203,0-9.29688-.43555-13.38965-1.30859-2.14844-.46875-3.97656-1.04004-5.48633-1.71191-1.51074-.66992-2.9375-1.57617-4.27832-2.71777-2.2832-2.01367-3.92676-4.16016-4.93359-6.44238-.87305-2.41602-1.30859-5.03418-1.30859-7.85254l.30176-5.73877.90625-6.2417.70508-4.42969h24.3623l-2.01367,11.77881-.60352,3.22217-.10059,2.11328c0,1.47754.60352,2.71875,1.81152,3.72559,1.3418.87305,2.75098,1.30859,4.22852,1.30859.80566,0,1.84473-.16699,3.12109-.50391,1.27344-.33496,2.24707-1.08984,2.91895-2.26465.66992-1.17383,1.20801-3.07031,1.61133-5.68848l9.96582-57.08057h30.50391Z"/><path class="c" d="M333.35934,61.78624h-34.02734l-1.00684,4.86621-.50293,4.56348c0,1.01367.19922,1.8252.59961,2.43359.39941.6084,1.04883,1.14941,1.94824,1.62109.90039.47363,1.88281.70996,2.94922.70996l2.19922-.30566c1.19922-.20215,2.31543-.81348,3.34766-1.8291s1.81543-2.16895,2.34961-3.45703l.59961-2.2373.50684-2.43945h20.5332c0,2.69922-.97363,5.73535-2.91895,9.10742-1.94727,3.37305-4.36328,5.70117-7.24805,6.98145-2.88672,1.28125-6.0752,2.22559-9.56445,2.83301-1.74609.27051-3.49023.47168-5.23438.6084-1.74609.13379-3.72559.20117-5.94043.20117-5.37012,0-9.81543-.4043-13.33887-1.21289s-6.56055-2.05371-9.11035-3.73828c-2.35059-1.68359-4.12793-3.94043-5.33594-6.77051-1.07422-3.03125-1.61035-5.79297-1.61035-8.28613,0-1.61621.0332-3.23242.10059-4.84961.06641-1.61768.23438-3.62158.50293-6.0127.26758-2.39062.97266-4.90137,2.11426-7.52832.60449-1.28027,1.20801-2.4585,1.8125-3.5376.60352-1.07715,1.24121-2.00391,1.91211-2.77783s1.41016-1.56641,2.21484-2.375c.53711-.53809,1.24121-1.17822,2.11426-1.91943,1.3418-1.07715,2.95312-2.021,4.83203-2.82959s3.48926-1.31348,4.83301-1.5166l4.53027-.50488h8.25488c1.94531,0,3.77539.03467,5.48633.10107,1.71191.06738,3.69043.23584,5.93945.50293,2.24805.26904,4.64648.97412,7.19824,2.11426,2.61719,1.00684,4.89844,2.58447,6.8457,4.73145,1.94629,1.94775,3.12109,3.96094,3.52344,6.04053l.50391,3.82568c0,1.87939-.30273,4.32861-.90625,7.34863l-1.00684,5.5376ZM311.8154,42.7589c-.87305-1.07275-2.18164-1.61084-3.92578-1.61084-.53809,0-1.32617.20117-2.36621.604-1.04102.40283-1.96289,1.34326-2.76855,2.81885-.53809,1.34326-1.1748,3.82568-1.91211,7.44971h10.97266c0-.66992.16699-1.67676.50391-3.02002l.50293-3.52344c0-1.14062-.33691-2.04688-1.00684-2.71826Z"/><path class="c" d="M361.35251,14.47032h13.18066l-3.13379,18.21973,7.96777.00146-1.69922,10.47314-8.06641-.00293-3.82715,22.24854-.40234,3.62402c0,1.87988.51855,3.03711,1.56055,3.47363,1.03906.43652,2.93457.6543,5.6875.6543l-1.81152,10.97266h-13.18848c-2.75293,0-5.58691-.30176-8.50684-.90625-2.91895-.60352-4.93262-1.64355-6.04004-3.12109-1.10742-1.47461-1.8623-2.78418-2.26562-3.92578l-.40234-3.72461c0-.53613.0332-1.20801.10059-2.01367.06641-.80469.20117-1.71094.40234-2.71777l.70508-4.42969,3.32227-20.13428-5.91797.00293,2.01172-11.57715c4.22559,0,7.83105-1.05713,10.81641-3.17139,2.98438-2.11377,5.5498-5.45508,7.69629-10.02002l1.81055-3.92578Z"/></svg>